HIERARCHY
ROOT Hips
{
   OFFSET 0.00000 0.00000 0.00000
   CHANNELS 6 Xposition Yposition Zposition Zrotation Xrotation Yrotation
   JOINT Spine
   {
      OFFSET 0.000000 11.890501 0.000000
      CHANNELS 3 Zrotation Xrotation Yrotation
      JOINT Spine1
      {
         OFFSET -0.000000 25.657401 0.127660
         CHANNELS 3 Zrotation Xrotation Yrotation
         JOINT HEad
         {
            OFFSET 0.000000 8.734161 0.011340
            CHANNELS 3 Zrotation Xrotation Yrotation
            End Site
            {
               OFFSET -0.290000 12.774200 2.513950
            }
         }
         JOINT LeftShoulder1
         {
            OFFSET 8.990000 -0.362250 -0.220000
            CHANNELS 3 Zrotation Xrotation Yrotation
            JOINT LeftArm
            {
               OFFSET 10.282700 -0.003380 0.322120
               CHANNELS 3 Zrotation Xrotation Yrotation
               JOINT LeftForeArm
               {
                  OFFSET 32.766900 0.099140 -1.424340
                  CHANNELS 3 Zrotation Xrotation Yrotation
                  JOINT LeftHand
                  {
                     OFFSET 27.564301 0.085360 1.022160
                     CHANNELS 3 Zrotation Xrotation Yrotation
                     End Site
                     {
                        OFFSET 16.744301 -0.600000 1.502910
                     }
                  }
               }
            }
         }
         JOINT RightShoulder
         {
            OFFSET -8.990000 -0.362250 -0.220000
            CHANNELS 3 Zrotation Xrotation Yrotation
            JOINT RightArm
            {
               OFFSET -10.282700 -0.003380 0.322120
               CHANNELS 3 Zrotation Xrotation Yrotation
               JOINT RightForeArm
               {
                  OFFSET -32.897098 0.099140 -1.424340
                  CHANNELS 3 Zrotation Xrotation Yrotation
                  JOINT RightHand
                  {
                     OFFSET -27.492101 0.085360 1.022160
                     CHANNELS 3 Zrotation Xrotation Yrotation
                     End Site
                     {
                        OFFSET -16.631201 -0.600000 1.502910
                     }
                  }
               }
            }
         }
      }
   }
   JOINT LeftUpLeg
   {
      OFFSET 8.945800 -8.667070 0.101650
      CHANNELS 3 Zrotation Xrotation Yrotation
      JOINT LeftLeg
      {
         OFFSET 0.000000 -44.422697 1.372700
         CHANNELS 3 Zrotation Xrotation Yrotation
         JOINT LeftFoot
         {
            OFFSET -0.253550 -42.092399 -1.460590
            CHANNELS 3 Zrotation Xrotation Yrotation
            JOINT LeftToes
            {
               OFFSET -0.040000 -4.415090 8.499099
               CHANNELS 3 Zrotation Xrotation Yrotation
               End Site
               {
                  OFFSET 0.080000 -0.047450 9.779790
               }
            }
         }
      }
   }
   JOINT RightUpLeg
   {
      OFFSET -8.945800 -8.667070 0.101650
      CHANNELS 3 Zrotation Xrotation Yrotation
      JOINT RightLeg
      {
         OFFSET 0.000000 -44.422697 1.372700
         CHANNELS 3 Zrotation Xrotation Yrotation
         JOINT RightFoot
         {
            OFFSET 0.253550 -42.092399 -1.460590
            CHANNELS 3 Zrotation Xrotation Yrotation
            JOINT RightToes
            {
               OFFSET 0.040000 -4.415090 8.499099
               CHANNELS 3 Zrotation Xrotation Yrotation
               End Site
               {
                  OFFSET -0.080000 -0.137450 9.779790
               }
            }
         }
      }
   }
}
MOTION
Frames: 7
Frame Time: 0.016670
-20.826235 65.475735 -26.754992 47.747674 48.736299 137.691655 24.137352 52.525917 84.642949 39.229629 -6.757802 -107.374897 3.082051 13.599653 -19.345317 25.456911 67.589004 -35.436565 57.841587 -7.258866 19.667140 69.530260 -44.874292 36.537383 -101.718476 -62.942078 -148.794209 -9.504963 10.608967 22.845808 82.357253 -42.670719 105.650500 -28.488868 44.689877 65.694044 -16.381959 62.129040 -8.731798 4.845828 11.756401 13.264303 12.472771 33.702319 65.225329 -34.172376 55.983564 -17.351331 26.573215 28.084304 -80.504858 -70.629367 59.101436 75.663729 45.457245 14.372342 39.963153 11.909495 8.662216 79.017810 101.165661 -89.374050 8.777774
-20.968175 64.338325 -26.474392 43.820964 48.590710 138.267645 25.106993 55.224962 91.313776 36.395694 -4.173443 -109.009833 5.308379 8.537211 -23.157055 25.202865 71.623665 -42.016329 59.295495 -7.740478 26.032257 75.381308 -43.065716 35.287537 -108.963312 -68.448468 -152.442487 -22.002998 7.593365 28.075337 90.035130 -49.201766 102.614836 -36.404058 40.518636 59.219427 -12.210935 49.294254 -9.719447 2.634891 9.390260 11.726874 12.350561 34.074694 62.887519 -32.433597 55.795805 -19.042311 23.583837 27.339866 -82.347179 -69.630869 57.588624 74.226466 43.662251 13.616049 39.709323 16.837233 10.062711 80.482612 95.318015 -89.476059 9.074467
-21.093390 62.964167 -26.021070 42.602793 50.342234 140.351672 28.978696 54.060220 100.109529 31.627618 -5.316022 -110.876633 9.656680 2.238088 -28.535986 20.242227 75.922744 -40.307801 62.704176 2.515214 23.094323 80.458631 -44.752202 40.359953 -115.398232 -71.641096 -159.153011 -27.288892 13.265829 24.233509 83.271392 -52.032644 93.322842 -41.923947 38.374690 47.653308 -17.186959 51.766434 4.663565 0.689806 7.607279 9.369125 13.104244 36.032045 61.373655 -29.447404 56.862732 -18.836887 19.993224 26.204118 -83.254357 -69.837325 57.603015 74.443045 42.657772 15.160051 39.945391 15.474729 10.718016 82.507831 94.504376 -89.833401 8.776110
-21.094970 61.555571 -25.463969 39.408993 49.988946 142.953155 30.249477 57.030939 108.734965 25.955796 -6.105805 -113.850784 13.186479 -4.656952 -34.591732 21.722471 79.887136 -49.938508 65.143284 5.584283 24.771836 82.235573 -43.731113 42.528917 -118.103424 -71.732341 -163.634175 -32.661258 17.723520 20.797067 76.254800 -53.531690 87.736410 -40.234042 38.141139 32.439236 0.622926 32.851543 2.140025 -1.946989 4.643765 7.296426 14.420437 37.741983 60.793287 -27.838461 57.184645 -18.699883 15.425916 24.588889 -82.964819 -66.930239 56.636758 73.246498 42.090156 13.902030 39.627361 15.151673 11.362422 84.851324 91.719093 -89.282191 9.175514
-20.981748 60.209416 -24.931383 35.692523 49.615788 147.192694 30.849861 61.566362 117.816952 18.960655 -5.643507 -117.233654 14.837099 -10.160487 -40.243847 22.225581 80.963259 -59.507231 68.047296 10.039877 24.093262 83.255710 -42.515998 42.597851 -118.669360 -71.401370 -165.720893 -38.234016 22.536218 16.701805 69.236624 -54.560217 83.935799 -32.139780 36.107542 14.482043 -21.029070 53.472721 18.412040 -5.330310 1.295350 5.124963 15.667803 39.637097 60.467815 -26.856309 57.442308 -18.508752 10.376598 22.829772 -81.765137 -62.331132 55.383501 71.258086 43.107803 12.862900 38.938113 13.830467 11.027157 86.881106 89.820328 -88.842306 9.267091
-20.890121 58.690466 -24.245224 29.990036 48.936226 150.616518 31.248775 64.175269 125.627765 15.095396 -5.682112 -121.438400 16.554046 -13.595492 -45.284588 21.537922 79.503962 -66.244529 69.568243 12.607111 22.657126 84.681239 -42.729038 38.651860 -118.996498 -69.411770 -165.865707 -40.665075 28.521535 11.753326 63.851552 -55.186583 82.402039 -26.470277 29.281373 2.870776 -14.586866 44.843235 22.730666 -7.486305 -2.470748 4.091606 14.168614 39.953250 59.020464 -26.094313 58.219378 -19.075873 5.813713 21.446632 -80.548154 -57.965828 52.560297 69.561167 43.547985 12.772183 37.586736 14.046864 9.903040 88.160107 87.483713 -88.439885 9.187270
-20.890991 57.037806 -23.292153 27.697011 49.575774 154.172191 28.987412 68.611402 132.387740 16.315882 -6.585236 -125.246955 18.664445 -13.632915 -48.733547 19.790367 77.872175 -68.835193 71.972784 13.044690 20.360092 80.836819 -45.434736 28.858581 -116.921214 -59.748924 -166.626549 -37.028494 34.851587 5.332591 64.840290 -55.489181 88.124637 -26.879653 15.505521 0.297982 -30.122995 47.308738 33.634870 -8.135233 -3.099671 3.161270 12.158218 40.533351 57.424037 -25.480065 59.163488 -19.903695 1.161527 20.103077 -79.502343 -53.420781 51.485341 68.210866 45.286354 14.715228 36.176609 15.226947 8.913443 89.439271 86.014198 -86.989105 8.142590
